<svg id="Capa_1" enable-background="new 0 0 512 512" height="512" viewBox="0 0 512 512" width="512" xmlns="http://www.w3.org/2000/svg"><g><path d="m492.68 303.931v132.69h-473.36v-132.69c0-130.71 105.97-236.67 236.68-236.67 57.94 0 111.01 20.82 152.15 55.39.06.05.13.1.19.15 5.12 4.31 10.06 8.83 14.79 13.55l.23.23c42.83 42.83 69.32 102 69.32 167.35z" fill="#b3dafe"/><path d="m492.676 348.969h-33.594l-.834-81.404h30.367c.431 0 .851-.044 1.262-.114-.776-5.017-1.721-9.978-2.807-14.886h-93.16l-.784-81.403h53.524c1.618 0 3.112-.517 4.337-1.389-3.213-4.661-6.588-9.2-10.119-13.611h-112.104l-.797-77.748c-4.857-1.549-9.783-2.943-14.77-4.181-.166.634-.26 1.297-.253 1.983l.82 79.946h-114.982l-.818-79.79c-.007-.647-.104-1.271-.266-1.87-4.969 1.259-9.872 2.683-14.71 4.251l.794 77.409h-112.648c-3.53 4.411-6.905 8.95-10.118 13.611 1.225.872 2.72 1.389 4.338 1.389h52.807l.835 81.403h-94.065c-1.086 4.908-2.031 9.869-2.807 14.886.411.07.831.114 1.262.114h29.914l.834 81.404h-34.81v15h66.618l.896 72.656h14.997c0-.031.004-.061.004-.092l-.895-72.563h309.634l.896 72.656h14.997c0-.031.004-.061.004-.092l-.895-72.563h67.098v-15.002zm-114.553-177.807.784 81.403h-114.93l-.834-81.403zm-129.98 0 .834 81.403h-114.981l-.834-81.403zm-179.008 177.807-.834-81.404h374.946l.834 81.404z" fill="#d8ecfe"/><path d="m377.317 436.625h-242.634v-85.291c0-67.001 54.315-121.317 121.317-121.317 67.001 0 121.317 54.315 121.317 121.317z" fill="#8ac9fe"/><path d="m178.011 436.625v-85.291c0-43.072 34.917-77.989 77.989-77.989 43.072 0 77.989 34.917 77.989 77.989v85.291z" fill="#0268b4"/><path d="m423.15 212.801c0 7.48-3.03 14.25-7.93 19.15s-11.68 7.93-19.15 7.93c-14.96 0-27.08-12.12-27.08-27.08v-40.62c0-15.6-12.65-28.24-28.25-28.24h-151.36c-7.8 0-14.86 3.16-19.98 8.27-5.11 5.11-8.27 12.17-8.27 19.97 0 5.24-2.12 9.98-5.55 13.41s-8.16 5.55-13.4 5.55c-10.47 0-18.96-8.49-18.96-18.96v-38.11c20.25-16.21 43.22-29.16 68.11-38.06s51.71-13.75 79.67-13.75c28.78 1.14 52.35 5.84 69.27 10.3 22.666 5.975 46.061 11.713 68.07 30.24 5.12 4.31 10.06 8.83 14.79 13.55 0 25.48.01 50.97.02 76.45z" fill="#8ac9fe"/><g fill="#c4e2ff"><path d="m313.638 143.939h15.001l-.561-54.741c-4.952-1.227-9.964-2.3-15.034-3.209z"/><path d="m364.002 156.162c2.961 4.291 4.763 9.44 4.961 15h9.161l.602 62.434c4.15 3.465 9.354 5.706 15.06 6.182l-.661-68.617h30.023v-15h-59.146z"/><path d="m123.221 172.183c0 7.277 4.106 13.589 10.123 16.765l-.182-17.786h27.997c.198-5.56 1.999-10.709 4.961-15h-42.898v16.021z"/><path d="m183.196 99.1.466 45.418c1.846-.379 3.757-.579 5.715-.579h9.28l-.515-50.233c-5.059 1.635-10.043 3.433-14.946 5.394z"/></g><path d="m353.988 157.183v40.62c0 14.956 12.124 27.08 27.08 27.08 14.956 0 27.08-12.124 27.08-27.08v-75.146c-41.142-34.567-94.208-55.398-152.148-55.398-55.909 0-107.281 19.398-147.779 51.815v38.109c0 10.469 8.487 18.956 18.956 18.956 10.469 0 18.956-8.487 18.956-18.956 0-15.599 12.645-28.244 28.244-28.244h151.367c15.599 0 28.244 12.645 28.244 28.244z" fill="#eaf6ff"/><g><path d="m256 67.259c-2.513 0-5.013.053-7.507.131 40.218 1.252 77.905 12.536 110.645 31.435 21.112 12.187 34.009 34.822 34.009 59.199v39.78c0 12.353-8.274 22.766-19.58 26.019 2.383.686 4.897 1.061 7.5 1.061 14.956 0 27.08-12.124 27.08-27.08v-75.146c-41.141-34.568-94.207-55.399-152.147-55.399z" fill="#d8ecfe"/></g><g><path d="m504.5 444.741h-497c-4.142 0-7.5-3.358-7.5-7.5s3.358-7.5 7.5-7.5h497c4.142 0 7.5 3.358 7.5 7.5s-3.358 7.5-7.5 7.5z" fill="#d8ecfe"/></g></g></svg>